<svg width="17" height="17" viewBox="0 0 17 17" fill="none" xmlns="http://www.w3.org/2000/svg">
<path fill-rule="evenodd" clip-rule="evenodd" d="M10.5882 10.4691C10.6811 10.3761 10.7913 10.3023 10.9127 10.252C11.0341 10.2017 11.1643 10.1758 11.2957 10.1758C11.4271 10.1758 11.5572 10.2017 11.6786 10.252C11.8 10.3023 11.9103 10.3761 12.0032 10.4691L15.8532 14.3191C16.0408 14.5066 16.1463 14.7609 16.1464 15.0262C16.1465 15.2915 16.0412 15.5459 15.8537 15.7336C15.6662 15.9212 15.4118 16.0267 15.1465 16.0268C14.8813 16.0269 14.6268 15.9216 14.4392 15.7341L10.5892 11.8841C10.4962 11.7912 10.4224 11.6809 10.3721 11.5595C10.3218 11.4381 10.2959 11.308 10.2959 11.1766C10.2959 11.0452 10.3218 10.915 10.3721 10.7936C10.4224 10.6722 10.4962 10.5619 10.5892 10.4691H10.5882Z" fill="#323751"/>
<path fill-rule="evenodd" clip-rule="evenodd" d="M6.64648 12.0273C7.36875 12.0273 8.08395 11.8851 8.75124 11.6087C9.41853 11.3323 10.0248 10.9272 10.5356 10.4164C11.0463 9.90571 11.4514 9.29939 11.7278 8.6321C12.0042 7.96481 12.1465 7.24961 12.1465 6.52734C12.1465 5.80507 12.0042 5.08988 11.7278 4.42259C11.4514 3.75529 11.0463 3.14898 10.5356 2.63826C10.0248 2.12753 9.41853 1.72241 8.75124 1.44601C8.08395 1.16961 7.36875 1.02734 6.64648 1.02734C5.18779 1.02734 3.78885 1.60681 2.7574 2.63826C1.72595 3.66971 1.14648 5.06865 1.14648 6.52734C1.14648 7.98603 1.72595 9.38498 2.7574 10.4164C3.78885 11.4479 5.18779 12.0273 6.64648 12.0273ZM13.1465 6.52734C13.1465 8.25125 12.4617 9.90455 11.2427 11.1235C10.0237 12.3425 8.37039 13.0273 6.64648 13.0273C4.92258 13.0273 3.26928 12.3425 2.05029 11.1235C0.831304 9.90455 0.146484 8.25125 0.146484 6.52734C0.146484 4.80344 0.831304 3.15014 2.05029 1.93115C3.26928 0.712163 4.92258 0.0273438 6.64648 0.0273438C8.37039 0.0273438 10.0237 0.712163 11.2427 1.93115C12.4617 3.15014 13.1465 4.80344 13.1465 6.52734Z" fill="#5F82A6"/>
</svg>
